<?xml version="1.0" encoding="utf-8"?>
<!-- Generator: Adobe Illustrator 19.1.0, SVG Export Plug-In . SVG Version: 6.00 Build 0)  -->
<svg version="1.1" id="Capa_1" xmlns="http://www.w3.org/2000/svg" xmlns:xlink="http://www.w3.org/1999/xlink" x="0px" y="0px"
	 viewBox="-25 116 561 561" style="enable-background:new -25 116 561 561;" xml:space="preserve">
<style type="text/css">
	.st0{fill:#FFFFFF;}
</style>
<g>
	<g id="gps-fixed">
		<path class="st0" d="M255.5,294.5c-56.1,0-102,45.9-102,102s45.9,102,102,102s102-45.9,102-102S311.6,294.5,255.5,294.5z
			 M482.5,371C469.7,263.9,385.5,179.8,281,169.6V116h-51v53.6C122.9,179.8,38.8,263.9,28.5,371H-25v51h53.5
			C41.3,529.1,125.4,613.3,230,623.5V677h51v-53.5c107.1-12.8,191.3-96.9,201.5-201.5H536v-51H482.5z M255.5,575
			C156.1,575,77,496,77,396.5S156.1,218,255.5,218S434,297,434,396.5S355,575,255.5,575z"/>
	</g>
</g>
</svg>
