<?xml version="1.0" encoding="utf-8"?>
<!-- Generator: Adobe Illustrator 19.1.0, SVG Export Plug-In . SVG Version: 6.00 Build 0)  -->
<svg version="1.1" id="Enveloppe_1_" xmlns="http://www.w3.org/2000/svg" xmlns:xlink="http://www.w3.org/1999/xlink" x="0px"
	 y="0px" viewBox="487 113 520 400" style="enable-background:new 487 113 520 400;" xml:space="preserve">
<style type="text/css">
	.st0{fill:#FFFFFF;}
</style>
<rect id="gabarit_2" x="771" y="68.5" class="st0" width="16" height="16"/>
<rect id="gabarit_1" x="694.4" y="76.5" transform="matrix(0.7071 -0.7071 0.7071 0.7071 145.9725 521.4088)" class="st0" width="16" height="16"/>
<g id="Group">
	<path d="M982.5,513h-471c-13.5,0-24.5-11-24.5-24.5v-351c0-13.5,11-24.5,24.5-24.5h471c13.5,0,24.5,11,24.5,24.5v351
		C1007,502,996,513,982.5,513z"/>
	<polygon id="Right" class="st0" points="991,485.7 815.2,313 991,140.3 	"/>
	<polygon id="Left" class="st0" points="503,140.3 678.8,313 503,485.7 	"/>
	<polygon id="Top_1_" class="st0" points="979.8,129 747,357.1 514.2,129 	"/>
	<path id="Bottom" class="st0" d="M803.6,324.4l-48.2,48.2c-4.7,4.7-12.4,4.7-17.1,0l-48.1-48.1L514.2,497h465.6L803.6,324.4z"/>
</g>
</svg>
